<!DOCTYPE svg PUBLIC "-//W3C//DTD SVG 1.1//EN" "http://www.w3.org/Graphics/SVG/1.1/DTD/svg11.dtd">
<!-- Uploaded to: SVG Repo, www.svgrepo.com, Transformed by: SVG Repo Mixer Tools -->
<svg fill="#FFBC5E" width="800px" height="800px" viewBox="0 0 64 64" enable-background="new 0 0 64 64" version="1.1" xml:space="preserve" xmlns="http://www.w3.org/2000/svg" xmlns:xlink="http://www.w3.org/1999/xlink" stroke="#FFBC5E">
<g id="SVGRepo_bgCarrier" stroke-width="0"/>
<g id="SVGRepo_tracerCarrier" stroke-linecap="round" stroke-linejoin="round"/>
<g id="SVGRepo_iconCarrier"> <g id="_x31_-smartphone"/> <g id="_x32_-smartTV"/> <g id="_x33_-telepon"/> <g id="_x34_-computer"/> <g id="_x35_-kalkulator"/> <g id="_x36_-radio"/> <g id="_x37_-hadset"/> <g id="_x38_-usbflashdisk"/> <g id="_x39_-camera"/> <g id="_x31_0-printer"/> <g id="_x31_1-powerbank"/> <g id="_x31_2-kulkas"/> <g id="_x31_3-modem"> <g> <path d="M61,31h-8V13.348c1.277-1.127,2-2.711,2-4.419C55,5.66,52.34,3,49.07,3c-3.269,0-5.928,2.66-5.928,5.929 c0,1.625,0.671,3.159,1.857,4.281V31H3v26h8v4h9v-4h24v4h9v-4h8V31z M46.626,11.977c-0.942-0.758-1.483-1.869-1.483-3.048 C45.143,6.762,46.904,5,49.07,5C51.237,5,53,6.762,53,8.929c0,1.241-0.582,2.386-1.597,3.141L51,12.37V31h-4V12.276L46.626,11.977 z M45,33h8h6v18H5V33H45z M18,59h-5v-2h5V59z M51,59h-5v-2h5V59z M5,55v-2h54v2H5z"/> <path d="M15.929,47.929c2.717,0,4.928-2.211,4.928-4.929s-2.211-4.929-4.928-4.929C13.211,38.071,11,40.282,11,43 S13.211,47.929,15.929,47.929z M15.929,40.071c1.615,0,2.928,1.313,2.928,2.929s-1.313,2.929-2.928,2.929S13,44.615,13,43 S14.314,40.071,15.929,40.071z"/> <path d="M28.071,47.929C30.789,47.929,33,45.718,33,43s-2.211-4.929-4.929-4.929c-2.717,0-4.928,2.211-4.928,4.929 S25.354,47.929,28.071,47.929z M28.071,40.071C29.686,40.071,31,41.385,31,43s-1.314,2.929-2.929,2.929 c-1.615,0-2.928-1.313-2.928-2.929S26.456,40.071,28.071,40.071z"/> <rect height="2" width="17" x="35" y="42"/> </g> </g> <g id="_x31_4-tablet"/> <g id="_x31_5-gamebot"/> <g id="_x31_6-wasing_machine"/> <g id="_x31_7-handdryer"/> <g id="_x31_8-blender"/> <g id="_x31_9-controller"/> <g id="_x32_0-michrophone"/> <g id="_x32_1-lamp"/> </g>
</svg>